<?xml version="1.0" standalone="no"?>
<!DOCTYPE svg PUBLIC "-//W3C//DTD SVG 20010904//EN"
 "http://www.w3.org/TR/2001/REC-SVG-20010904/DTD/svg10.dtd">
<svg version="1.0" xmlns="http://www.w3.org/2000/svg"
 width="500.000000pt" height="500.000000pt" viewBox="0 0 500.000000 500.000000"
 preserveAspectRatio="xMidYMid meet">
<metadata>
Created by potrace 1.14, written by Peter Selinger 2001-2017
</metadata>
<g transform="translate(0.000000,500.000000) scale(0.100000,-0.100000)"
fill="#000000" stroke="none">
<path d="M4025 4138 c-46 -8 -274 -113 -276 -127 0 -3 -2 -13 -3 -21 -2 -8 -6
-62 -10 -120 -4 -58 -9 -127 -11 -155 -2 -27 -7 -90 -10 -140 -3 -49 -8 -112
-10 -140 -2 -27 -7 -86 -10 -130 -19 -279 -16 -261 -74 -575 -34 -183 -33
-175 -55 -280 -8 -41 -18 -91 -21 -110 -3 -19 -8 -42 -10 -50 -2 -8 -7 -29
-10 -46 -12 -76 -167 -754 -236 -1036 l-41 -167 32 -45 c40 -55 88 -89 166
-118 50 -19 80 -22 196 -23 75 0 139 2 142 5 8 8 16 63 32 225 2 28 7 66 9 85
3 19 7 55 10 80 4 25 8 56 10 70 2 14 7 54 10 90 3 36 8 72 10 80 2 8 6 42 10
75 3 33 8 71 10 85 3 24 12 87 21 160 2 19 6 51 9 70 3 19 7 53 10 75 3 22 7
54 9 70 2 17 7 53 11 80 3 28 8 61 10 75 3 14 7 52 10 85 7 63 11 98 19 155 3
19 8 62 11 95 7 80 13 125 20 155 3 14 8 36 11 50 3 14 16 70 29 125 35 148
106 451 122 525 8 36 16 72 18 80 2 8 11 47 20 85 9 39 29 124 45 190 26 113
65 283 75 332 4 17 -2 25 -27 36 -74 33 -103 40 -198 50 -19 3 -57 0 -85 -5z"/>
<path d="M2385 4123 c-102 -21 -236 -80 -259 -116 -8 -12 -27 -51 -42 -87 -14
-36 -34 -83 -44 -105 -10 -22 -30 -69 -45 -105 -15 -36 -33 -78 -40 -95 -38
-89 -72 -172 -112 -270 -24 -60 -50 -123 -57 -140 -8 -16 -48 -111 -90 -210
-42 -99 -97 -216 -121 -260 -24 -44 -66 -123 -93 -175 -28 -52 -66 -124 -85
-159 l-34 -64 -94 -3 c-52 -2 -143 -6 -204 -8 -60 -3 -116 -5 -123 -6 -23 0
-84 -72 -110 -129 -43 -93 -30 -184 39 -283 20 -27 38 -29 129 -12 14 2 48 7
75 10 28 4 54 9 59 11 7 5 -61 -130 -144 -282 -15 -27 -49 -90 -75 -140 -26
-49 -65 -121 -85 -160 -21 -38 -49 -90 -63 -115 -13 -25 -42 -79 -65 -121
l-41 -75 19 -32 c42 -69 102 -107 200 -128 83 -17 245 -17 259 0 9 11 187 392
331 711 114 252 144 316 168 365 l27 55 80 12 c132 19 200 25 503 39 124 6
132 5 132 -12 1 -11 2 -248 3 -528 l3 -509 52 -47 c29 -26 79 -58 110 -70 64
-25 195 -37 287 -25 l57 7 -6 106 c-3 59 -8 125 -10 147 -3 22 -8 78 -11 125
-14 209 -16 238 -20 285 -3 28 -7 93 -10 145 -3 52 -7 109 -10 125 -2 17 -7
82 -11 145 -3 63 -8 118 -10 122 -8 13 14 17 142 23 241 12 220 4 273 110 45
90 55 153 39 229 -13 60 -77 121 -116 111 -15 -4 -38 -9 -52 -11 -14 -3 -33
-7 -42 -10 -10 -3 -30 -7 -45 -10 -16 -3 -70 -14 -122 -25 -51 -11 -96 -17
-99 -14 -8 8 -10 25 -17 140 -4 55 -8 123 -10 150 -3 47 -9 121 -21 260 -20
230 -20 279 1 505 2 25 7 81 10 125 4 44 9 100 11 125 13 158 18 221 18 265
l1 49 -90 22 c-84 20 -240 29 -300 17z m-39 -770 c2 -59 6 -182 9 -273 10
-320 15 -476 19 -582 4 -79 1 -108 -7 -109 -14 -1 -101 -5 -302 -14 -82 -4
-166 -8 -185 -9 -49 -3 -52 0 -30 42 10 20 42 89 70 152 29 63 90 196 135 295
46 99 100 216 120 260 69 150 83 180 119 257 20 43 36 83 36 90 0 6 3 9 6 5 4
-3 8 -55 10 -114z"/>
</g>
</svg>
